<?xml version="1.0" encoding="UTF-8" standalone="no"?>
<!-- Created with Inkscape (http://www.inkscape.org/) -->

<svg
   version="1.1"
   id="svg2"
   width="3877.9121"
   height="4177.7285"
   viewBox="0 0 3877.9121 4177.7285"
   sodipodi:docname="vecteezy_brain-icon-sign-symbol-logo-vector_6732116.eps"
   xml:space="preserve"
   xmlns:inkscape="http://www.inkscape.org/namespaces/inkscape"
   xmlns:sodipodi="http://sodipodi.sourceforge.net/DTD/sodipodi-0.dtd"
   xmlns="http://www.w3.org/2000/svg"
   xmlns:svg="http://www.w3.org/2000/svg"><defs
     id="defs6"><clipPath
       clipPathUnits="userSpaceOnUse"
       id="clipPath2247"><path
         id="path2249"
         style="fill:#000000;fill-opacity:1;stroke-width:1.39037;paint-order:markers fill stroke"
         d="m 1073.6624,958.37958 h 645.6722 V 686.80926 h -645.6722 z" /></clipPath></defs><sodipodi:namedview
     id="namedview4"
     pagecolor="#ffffff"
     bordercolor="#000000"
     borderopacity="0.25"
     inkscape:showpageshadow="2"
     inkscape:pageopacity="0.0"
     inkscape:pagecheckerboard="0"
     inkscape:deskcolor="#d1d1d1"
     showgrid="false" /><g
     id="g2255"
     transform="translate(-727.71075,-967.63906)"><g
       id="g679"
       transform="matrix(8.1551235,0,0,-8.1551235,-8646.7322,8594.4477)"
       style="fill:#000000;fill-opacity:1"
       clip-path="url(#clipPath2247)"><path
         id="path531"
         style="fill:#000000;fill-opacity:1;fill-rule:nonzero;stroke:none;stroke-width:0.1"
         d="m 1548.37,648.43 c -8.87,-1.44 -16.69,-5.56 -24.24,-10.21 -9.09,-5.61 -18.98,-9.25 -29.5,-10.59 -12.54,-1.6 -25.19,-3.12 -37.08,0.73 0.63,-8.03 1.85,-15.65 1.67,-23.23 -0.28,-11.82 -6.8,-20.74 -15.29,-28.38 -0.62,-0.56 -1.34,-1.03 -1.95,-1.6 -1.44,-1.34 -2.84,-2.72 -4.26,-4.08 1.72,-1.61 3.2,-3.64 5.2,-4.75 7.92,-4.41 16.45,-7.3 25.52,-7.73 11.35,-0.55 22.6,0.39 32.66,6.39 4.63,2.76 8.84,6.21 12.82,10.26 -6.08,0.47 -12.27,0.35 -18.2,1.54 -8.47,1.7 -16.81,4.17 -25.1,6.71 -3.34,1.02 -4.52,5.44 -3.06,8.97 1.52,3.68 4.68,5.02 8.6,3.55 12.9,-4.84 26.07,-7.56 39.99,-6.74 15.89,0.93 27.41,9.23 36.54,21.24 4.42,5.82 8.26,12.32 11.15,19.03 4.81,11.19 -3.34,20.85 -15.47,18.89 m 30.1,139.18 c -3.61,-2.86 -7.22,-5.71 -11.04,-8.73 6.49,-12.13 8.83,-25.29 8.74,-38.93 -0.01,-2.57 -0.35,-5.39 -1.46,-7.65 -1.33,-2.72 -4.25,-3.94 -7.23,-2.88 -2.98,1.07 -5.17,3.02 -5.37,6.76 -0.42,7.84 -0.66,15.74 -2.01,23.44 -0.85,4.85 -3.39,9.46 -5.58,13.99 -0.53,1.11 -2.61,1.83 -4.09,2.06 -4.24,0.66 -8.59,0.72 -12.81,1.48 -6.5,1.17 -9.21,7.84 -5.1,12.26 2.6,2.81 5.86,2.21 9.01,1.18 6.7,-2.19 13.13,-2.07 19.61,1.1 8.89,4.36 12.83,14.92 11.44,23.38 -1.42,8.63 -4.62,16.8 -11.6,22.67 -2.52,2.13 -5.49,4.04 -8.58,5.11 -16.63,5.76 -31.66,14.21 -44.77,25.95 -3.52,3.17 -6.72,6.75 -9.74,10.41 -2.63,3.18 -1.93,7.6 1.15,10.21 2.92,2.48 5.84,2.13 9.05,-1.52 9.1,-10.34 19.9,-18.44 31.96,-24.96 0.84,-0.46 1.79,-0.7 3.75,-1.44 -1.75,4.21 -2.91,7.75 -4.62,10.99 -10.53,19.94 -25.49,35.35 -46.31,44.66 -12.79,5.72 -24.77,-1.46 -26.93,-16.64 -2.09,-14.75 4.07,-26.66 14.52,-36.42 12.56,-11.72 27.37,-20.41 41.75,-29.62 3.92,-2.51 5.26,-6.72 3.22,-10.35 -1.49,-2.65 -6.47,-3.6 -9.94,-1.58 -4.45,2.6 -8.79,5.42 -13.1,8.25 -6.39,4.21 -12.72,8.52 -19.19,12.87 -4.62,-8.77 -2.75,-16.62 2.47,-24.14 0.21,-0.29 0.16,-0.77 0.23,-1.16 2.36,-2.39 4.57,-4.96 7.14,-7.1 2.02,-1.68 4.62,-2.66 6.71,-4.28 3.35,-2.58 3.63,-6.38 1.03,-9.9 -2.32,-3.14 -5.51,-3.46 -9.17,-1.15 -8.83,5.56 -16.21,12.55 -20.88,21.95 -2.52,5.08 -4.55,10.48 -2.99,16.42 -1.13,5.38 0.2,10.33 2.76,14.99 1.54,2.79 0.99,4.31 -1.4,6.73 -14.33,14.47 -20.23,31.91 -15.6,51.96 1.84,7.97 6.29,15.03 13.83,19.92 -9.79,4.75 -19.32,8.04 -29.95,7.18 -12.2,-1 -22.26,-6.44 -30.85,-14.68 -7.36,-7.06 -12.28,-15.71 -15.58,-25.43 -4.13,-12.17 -2.63,-24.47 -1.28,-36.71 0.65,-5.81 2.15,-11.68 4.28,-17.13 2.52,-6.47 6.83,-11.91 13.62,-14.61 6.79,-2.7 14.18,2.39 13.24,9.63 -1.15,8.91 -3.46,17.66 -4.95,26.53 -2.22,13.24 -1.76,26.09 6.78,37.41 1.18,1.56 2.38,3.19 3.87,4.42 3.15,2.63 6.17,1.87 8.99,-0.8 2.56,-2.43 2.84,-5.75 0.96,-7.93 -10.59,-12.22 -8.9,-25.73 -5.45,-39.89 2.19,-8.94 4.75,-18.03 2.69,-27.47 -0.03,-0.13 0.01,-0.3 -0.05,-0.41 -5.24,-9.42 1.44,-16.25 5.7,-23.07 6.58,-10.52 16.18,-18.3 27.36,-23.54 10.71,-5.03 22.16,-8.04 34.05,-8.92 3.36,-0.25 6.74,-0.42 10.11,-0.44 4.75,-0.04 7.4,-2.28 7.56,-6.59 0.15,-4.25 -1.96,-6.73 -6.71,-6.84 -5.19,-0.13 -10.4,0.36 -15.6,0.6 -1.38,0.06 -2.77,0.17 -4.92,0.31 0.4,-4.08 0.15,-7.99 1.25,-11.47 2.05,-6.5 4.18,-13.15 7.56,-18.99 4.02,-6.93 10.94,-11.27 18.86,-12.2 10.86,-1.28 21.91,-0.94 32.8,-2.09 12.84,-1.35 24.69,-5.41 32.94,-16.3 1.49,-1.97 2.58,-4.26 3.88,-6.46 11.59,13.71 4.24,82.87 -10.02,95.6 M 1415.04,609.9 c -3.86,-0.33 -6.25,1.86 -6.87,6.19 -1.51,10.57 -2.69,21.3 -7.85,30.83 -2.4,4.44 -5.78,8.59 -9.5,12 -0.94,0.86 -2.18,1.35 -3.54,1.55 -1.36,-0.2 -2.61,-0.69 -3.55,-1.55 -3.72,-3.41 -7.09,-7.56 -9.5,-12 -5.16,-9.53 -6.34,-20.26 -7.85,-30.83 -0.62,-4.33 -3.01,-6.52 -6.87,-6.19 -3.9,0.33 -6.34,2.91 -6.14,7.09 0.16,3.34 0.96,6.63 1.33,9.96 1.66,14.94 6.17,28.59 16.87,39.77 4.68,4.89 10.19,7.34 15.71,7.72 5.51,-0.38 11.02,-2.83 15.71,-7.72 10.69,-11.18 15.2,-24.83 16.86,-39.77 0.37,-3.33 1.17,-6.62 1.33,-9.96 0.21,-4.18 -2.24,-6.76 -6.14,-7.09 z m 25.43,18.92 c -3.58,6.14 -7.83,11.9 -12,17.66 -16.11,22.26 -24.59,46.87 -23.02,74.55 0.3,5.31 0.98,10.69 2.3,15.83 0.77,2.98 -0.48,4.21 -2.28,5.54 -7.82,5.76 -13.92,12.57 -18.19,20.52 -4.28,-7.95 -10.38,-14.76 -18.2,-20.52 -1.8,-1.33 -3.04,-2.56 -2.28,-5.54 1.33,-5.14 2,-10.52 2.3,-15.83 1.58,-27.68 -6.91,-52.29 -23.02,-74.55 -4.17,-5.76 -8.42,-11.52 -11.99,-17.66 -8.58,-14.73 -7.97,-31.47 6.96,-42.83 7.82,-5.96 16.54,-8.79 26.06,-5.01 9.01,3.58 15.5,10.19 20.17,18.6 4.66,-8.41 11.16,-15.02 20.17,-18.6 9.51,-3.78 18.23,-0.95 26.06,5.01 14.92,11.36 15.53,28.1 6.96,42.83 m 116.77,70.93 c -9.02,1.26 -18.17,1.84 -27.29,2.08 -9.56,0.26 -18.7,1.63 -27.09,6.51 -0.7,0.4 -1.57,0.51 -1.81,0.59 -3.81,-5.72 -7.07,-11.48 -11.16,-16.55 -7.37,-9.14 -17.79,-13.5 -28.79,-16.39 -5.21,-1.37 -8.03,0.73 -8.84,5.48 -1.28,5.14 1.81,8.53 7.2,7.88 3.54,1.6 7.14,3.08 10.61,4.83 8.51,4.3 14.14,11 17.25,20.1 1.44,4.19 1,7.15 -1.36,11.1 -5.64,9.43 -7.41,20.22 -8.22,31.09 -0.5,6.76 -0.61,6.72 -7.13,8.81 -13.92,4.47 -26.12,11.95 -35.48,23.15 -6.3,7.54 -11.33,16.15 -17.36,24.91 -12.25,-3.71 -22.1,1.85 -30.49,11.81 -8.39,-9.96 -18.25,-15.52 -30.5,-11.81 -6.03,-8.76 -11.05,-17.37 -17.36,-24.91 -9.35,-11.2 -21.56,-18.68 -35.48,-23.15 -6.52,-2.09 -6.62,-2.05 -7.13,-8.81 -0.81,-10.87 -2.58,-21.66 -8.22,-31.09 -2.36,-3.95 -2.8,-6.91 -1.36,-11.1 3.11,-9.1 8.74,-15.8 17.26,-20.1 3.46,-1.75 7.07,-3.23 10.61,-4.83 5.38,0.65 8.47,-2.74 7.19,-7.88 -0.81,-4.75 -3.63,-6.85 -8.84,-5.48 -11,2.89 -21.42,7.25 -28.79,16.39 -4.09,5.07 -7.34,10.83 -11.15,16.55 -0.25,-0.08 -1.12,-0.19 -1.82,-0.59 -8.39,-4.88 -17.53,-6.25 -27.09,-6.51 -9.12,-0.24 -18.27,-0.82 -27.29,-2.08 -8.63,-1.21 -15.83,-5.63 -18.89,-14.18 -3.27,-9.15 -2.08,-18.58 0.41,-27.82 0.45,-1.67 1.11,-3.27 1.44,-4.23 4.82,2.52 8.99,5.54 13.64,6.95 10.6,3.22 20.92,1 30.69,-3.64 5.8,-2.75 11.26,-6.23 17,-9.12 15.11,-7.58 31.34,-9.16 47.71,-6.89 6.66,0.92 13.44,4.13 19.18,7.83 7.79,5.02 12.12,13.47 16.27,21.57 7.64,14.91 11.35,30.86 10.7,47.64 -0.56,14.28 -4.53,27.6 -12.43,39.64 -0.77,1.18 -1.48,2.39 -2.28,3.55 -3.08,4.48 -2.95,7.92 0.4,10.23 4.3,2.97 8.3,2.03 11.33,-2.85 2.93,-4.71 5.71,-9.52 8.65,-14.45 1.12,0.65 2.36,1.1 3.25,1.93 8.61,7.93 14.17,17.58 16.39,29.14 0.29,1.54 1.08,3.26 2.18,4.31 1.29,1.22 2.74,1.95 4.33,1.92 1.59,0.03 3.03,-0.7 4.32,-1.92 1.11,-1.05 1.89,-2.77 2.18,-4.31 2.22,-11.56 7.78,-21.21 16.39,-29.14 0.9,-0.83 2.13,-1.28 3.26,-1.93 2.93,4.93 5.71,9.74 8.64,14.45 3.03,4.88 7.03,5.82 11.34,2.85 3.35,-2.31 3.47,-5.75 0.39,-10.23 -0.79,-1.16 -1.51,-2.37 -2.28,-3.55 -7.9,-12.04 -11.87,-25.36 -12.43,-39.64 -0.65,-16.78 3.06,-32.73 10.7,-47.64 4.15,-8.1 8.48,-16.55 16.28,-21.57 5.73,-3.7 12.51,-6.91 19.18,-7.83 16.36,-2.27 32.59,-0.69 47.7,6.89 5.74,2.89 11.2,6.37 17,9.12 9.77,4.64 20.1,6.86 30.69,3.64 4.65,-1.41 8.82,-4.43 13.64,-6.95 0.33,0.96 0.99,2.56 1.44,4.23 2.49,9.24 3.68,18.67 0.41,27.82 -3.06,8.55 -10.26,12.97 -18.89,14.18 m -226.62,-123 c -8.48,7.64 -15.01,16.56 -15.29,28.38 -0.18,7.58 1.04,15.2 1.67,23.23 -11.89,-3.85 -24.54,-2.33 -37.08,-0.73 -10.52,1.34 -20.41,4.98 -29.5,10.59 -7.55,4.65 -15.37,8.77 -24.24,10.21 -12.13,1.96 -20.28,-7.7 -15.46,-18.89 2.88,-6.71 6.72,-13.21 11.14,-19.03 9.13,-12.01 20.66,-20.31 36.54,-21.24 13.92,-0.82 27.09,1.9 39.99,6.74 3.93,1.47 7.08,0.13 8.6,-3.55 1.46,-3.53 0.28,-7.95 -3.06,-8.97 -8.28,-2.54 -16.62,-5.01 -25.1,-6.71 -5.93,-1.19 -12.12,-1.07 -18.19,-1.54 3.97,-4.05 8.18,-7.5 12.81,-10.26 10.06,-6 21.31,-6.94 32.66,-6.39 9.07,0.43 17.6,3.32 25.52,7.73 2,1.11 3.49,3.14 5.21,4.75 -1.42,1.36 -2.83,2.74 -4.27,4.08 -0.61,0.57 -1.32,1.04 -1.95,1.6 m -74.94,140.11 c 7.92,0.93 14.84,5.27 18.86,12.2 3.39,5.84 5.51,12.49 7.56,18.99 1.1,3.48 0.85,7.39 1.25,11.47 -2.15,-0.14 -3.54,-0.25 -4.92,-0.31 -5.2,-0.24 -10.41,-0.73 -15.6,-0.6 -4.75,0.11 -6.85,2.59 -6.7,6.84 0.15,4.31 2.81,6.55 7.56,6.59 3.37,0.02 6.74,0.19 10.1,0.44 11.9,0.88 23.35,3.89 34.06,8.92 11.18,5.24 20.77,13.02 27.36,23.54 4.26,6.82 10.93,13.65 5.69,23.07 -0.06,0.11 -0.02,0.28 -0.05,0.41 -2.06,9.44 0.51,18.53 2.69,27.47 3.46,14.16 5.15,27.67 -5.44,39.89 -1.89,2.18 -1.61,5.5 0.95,7.93 2.83,2.67 5.84,3.43 8.99,0.8 1.49,-1.23 2.69,-2.86 3.87,-4.42 8.54,-11.32 9,-24.17 6.78,-37.41 -1.49,-8.87 -3.8,-17.62 -4.95,-26.53 -0.94,-7.24 6.45,-12.33 13.24,-9.63 6.79,2.7 11.1,8.14 13.62,14.61 2.13,5.45 3.64,11.32 4.28,17.13 1.35,12.24 2.86,24.54 -1.28,36.71 -3.29,9.72 -8.22,18.37 -15.57,25.43 -8.6,8.24 -18.66,13.68 -30.86,14.68 -10.63,0.86 -20.15,-2.43 -29.95,-7.18 7.54,-4.89 11.99,-11.95 13.83,-19.92 4.63,-20.05 -1.27,-37.49 -15.6,-51.96 -2.39,-2.42 -2.94,-3.94 -1.4,-6.73 2.56,-4.66 3.89,-9.61 2.76,-14.99 1.56,-5.94 -0.46,-11.34 -2.99,-16.42 -4.67,-9.4 -12.05,-16.39 -20.87,-21.95 -3.66,-2.31 -6.86,-1.99 -9.18,1.15 -2.6,3.52 -2.32,7.32 1.03,9.9 2.1,1.62 4.69,2.6 6.72,4.28 2.56,2.14 4.77,4.71 7.13,7.1 0.07,0.39 0.02,0.87 0.23,1.16 5.22,7.52 7.1,15.37 2.47,24.14 -6.47,-4.35 -12.8,-8.66 -19.19,-12.87 -4.31,-2.83 -8.64,-5.65 -13.1,-8.25 -3.47,-2.02 -8.44,-1.07 -9.94,1.58 -2.04,3.63 -0.69,7.84 3.22,10.35 14.38,9.21 29.19,17.9 41.75,29.62 10.45,9.76 16.62,21.67 14.52,36.42 -2.15,15.18 -14.14,22.36 -26.93,16.64 -20.82,-9.31 -35.78,-24.72 -46.31,-44.66 -1.71,-3.24 -2.87,-6.78 -4.62,-10.99 1.96,0.74 2.91,0.98 3.75,1.44 12.06,6.52 22.87,14.62 31.96,24.96 3.21,3.65 6.14,4 9.05,1.52 3.08,-2.61 3.78,-7.03 1.15,-10.21 -3.02,-3.66 -6.21,-7.24 -9.74,-10.41 -13.1,-11.74 -28.14,-20.19 -44.76,-25.95 -3.09,-1.07 -6.06,-2.98 -8.58,-5.11 -6.99,-5.87 -10.19,-14.04 -11.61,-22.67 -1.38,-8.46 2.55,-19.02 11.44,-23.38 6.48,-3.17 12.91,-3.29 19.61,-1.1 3.16,1.03 6.42,1.63 9.02,-1.18 4.1,-4.42 1.39,-11.09 -5.11,-12.26 -4.22,-0.76 -8.57,-0.82 -12.81,-1.48 -1.48,-0.23 -3.55,-0.95 -4.09,-2.06 -2.19,-4.53 -4.73,-9.14 -5.58,-13.99 -1.34,-7.7 -1.58,-15.6 -2.01,-23.44 -0.2,-3.74 -2.39,-5.69 -5.37,-6.76 -2.97,-1.06 -5.9,0.16 -7.23,2.88 -1.11,2.26 -1.44,5.08 -1.46,7.65 -0.09,13.64 2.25,26.8 8.74,38.93 -3.82,3.02 -7.43,5.87 -11.04,8.73 -14.26,-12.73 -21.61,-81.89 -10.02,-95.6 1.31,2.2 2.39,4.49 3.88,6.46 8.25,10.89 20.1,14.95 32.95,16.3 10.88,1.15 21.93,0.81 32.79,2.09" /></g><g
       id="g407"
       transform="matrix(0.27784312,0,0,-0.27784312,-111.76445,6902.7251)"><path
         id="path411"
         style="fill:#100f0d;fill-opacity:1;fill-rule:nonzero;stroke:none"
         d="m 3882.4,13004.3 v 157.1 h 641 v -141.9 c 0,-2035.5 959.3,-3821.4 2450.3,-4966.6 -1832.4,905.1 -3091.3,2764.4 -3091.3,4951.4 z m 12771,670.7 H 3346.6 c -179.6,0 -325.2,-145.6 -325.2,-325.2 v -451.1 c 0,-2617.2 1732.5,-4783.6 4113.1,-5507.2 h 5731.1 c 2380.7,723.6 4113,2890 4113,5507.2 v 451.1 c 0,179.6 -145.6,325.2 -325.2,325.2 M 7131.65,7046.5 v -393.6 c 0,-181.1 146.81,-327.9 327.91,-327.9 h 5080.94 c 181.1,0 327.9,146.8 327.9,327.9 v 393.6 H 7131.65" /></g></g></svg>
